# xmcd CD database file
#
# Track frame offsets:
#	150
#	41407
#	78057
#	128540
#	156965
#	191952
#
# Disc length: 3246 seconds
#
# Revision: 5
# Processed by: cddbd v1.5.2PL0 Copyright (c) Steve Scherf et al.
# Submitted via: CDex 1.51
#
DISCID=410cac06
DTITLE=Miles Davis - 'Four' and More
DYEAR=1964
DGENRE=Jazz
TTITLE0=So What
TTITLE1=Walkin'
TTITLE2=Joshua - Go Go
TTITLE3=Four
TTITLE4=Seven Steps to Heaven
TTITLE5=There is No Greater Love - Go Go
EXTD=YEAR: 1964
EXTT0=
EXTT1=
EXTT2=
EXTT3=
EXTT4=
EXTT5=
PLAYORDER=
